<svg x="0" y="0" width="1240" height="620" viewBox="0 0 1240 620" xmlns="http://www.w3.org/2000/svg" xmlns:xlink="http://www.w3.org/1999/xlink" xmlns:fi="http://pattern.flaticon.com/"><rect x="0px" y="0px" width="100%" height="100%" opacity="1" fill="#ffffff"/><defs><path d="M419.658,319.097c-3.531-11.585-9.88-22.113-18.48-30.64c-13.697-13.773-32.336-21.493-51.76-21.44    c-9.927,0.005-19.751,2.019-28.88,5.92l-72-72l95.6-94.88l22.64-0.64c2.739-0.083,5.244-1.563,6.64-3.92l32.4-54.48    c1.883-3.144,1.388-7.166-1.2-9.76l-28-28c-2.594-2.588-6.616-3.083-9.76-1.2l-54.48,32.4c-2.357,1.396-3.837,3.901-3.92,6.64    l-0.64,22.56l-95.36,95.2l-65.44-65.44c6.871-39.839-19.855-77.705-59.694-84.576c-18.459-3.184-37.437,0.83-53.026,11.216    c-3.66,2.475-4.621,7.448-2.146,11.108c0.696,1.029,1.622,1.882,2.706,2.492l36.32,20.24c8,4.56,9.6,18.16,3.12,29.68    c-6.48,11.52-18.88,17.44-26.96,12.96l-33.68-18.24c-3.871-2.13-8.736-0.718-10.865,3.153c-0.734,1.333-1.072,2.848-0.974,4.367    c2.531,40.348,37.292,71.004,77.64,68.473c8.336-0.523,16.521-2.469,24.2-5.753l59.52,59.52l-25.76,25.76l-5.84-5.76    c-6.465-6.187-16.655-6.187-23.12,0l-8,8c-6.095,5.934-6.481,15.599-0.88,22l-94.64,94.48c-6.384,6.109-6.607,16.238-0.498,22.622    c0.162,0.17,0.328,0.336,0.498,0.498l27.04,27.04c6.109,6.384,16.238,6.607,22.622,0.498c0.17-0.162,0.336-0.328,0.498-0.498    l94.72-94.64c6.401,5.601,16.066,5.215,22-0.88l8-8c6.384-6.109,6.607-16.238,0.498-22.622c-0.162-0.17-0.328-0.336-0.498-0.498    l-5.84-5.84l25.6-26.16l77.6,77.6c-6.704,39.868,20.18,77.621,60.048,84.325c23.614,3.971,47.677-3.859,64.432-20.965    c2.938-3.3,2.646-8.356-0.654-11.295c-0.852-0.759-1.857-1.327-2.946-1.665l-45.04-12.08c-4.414-1.419-7.908-4.824-9.44-9.2    c-2.34-6.033-2.621-12.67-0.8-18.88c3.36-12.56,14-21.52,22.96-19.12l44.56,12c0.716,0.104,1.444,0.104,2.16,0    c4.418,0.054,8.043-3.484,8.096-7.902C420.57,321.561,420.263,320.263,419.658,319.097z M321.178,78.537    c1.44-1.45,2.27-3.397,2.32-5.44l0.64-21.36l45.36-26.96l19.2,19.2l-26.4,45.28l-21.76,0.8c-2.043,0.05-3.99,0.88-5.44,2.32    l-97.6,97.52l-13.76-13.76L321.178,78.537z M43.738,397.337l-27.44-27.28l95.12-94.88l13.76,13.76l13.12,13.6L43.738,397.337z     M160.778,301.337l-10.56-10.64l-4.08-4.08l-33.6-33.84l8-8l48,48.64L160.778,301.337z M162.298,264.857l-13.76-13.76l25.76-25.76    l13.76,13.76L162.298,264.857z M369.658,303.337c-2.374-0.638-4.822-0.961-7.28-0.96c-17.441,1.408-31.837,14.204-35.28,31.36    c-2.73,9.634-2.196,19.901,1.52,29.2c3.429,8.949,10.866,15.764,20.08,18.4l29.76,8c-27.138,16.171-62.247,7.281-78.418-19.856    c-7.595-12.745-9.94-27.942-6.542-42.384c0.609-2.686-0.207-5.497-2.16-7.44l-180.32-180.48c-2.56-2.405-6.389-2.859-9.44-1.12    c-8.261,4.359-17.46,6.639-26.8,6.64c-24.069,0.021-45.568-15.048-53.76-37.68l18.24,10.16c4.252,2.381,9.047,3.621,13.92,3.6    c14.812-0.853,28.06-9.502,34.8-22.72c10.88-19.44,6.64-42.56-9.36-51.52l-23.28-13.2c29.75-10.627,62.481,4.876,73.108,34.625    c3.688,10.326,4.331,21.494,1.852,32.175c-0.609,2.686,0.207,5.497,2.16,7.44l180.72,180.64c2.47,2.473,6.26,3.057,9.36,1.44    c8.262-4.356,17.46-6.635,26.8-6.64c20.258-0.016,39.009,10.699,49.28,28.16L369.658,303.337z" transform="matrix(0.14266861975193024 0 0 0.14266861975193024 330 73)" id="L1_4" fill="#687d77"/><g transform="matrix(0.13641571998596191 0 0 0.13641571998596191 271 196)" id="L1_6"><path d="M225.36,259.98h-22.48c-1.417-4.285-3.155-8.457-5.2-12.48l16-16c3.102-3.12,3.102-8.16,0-11.28l-28.8-28.8    c-3.12-3.102-8.16-3.102-11.28,0l-16,16c-3.951-1.955-8.043-3.613-12.24-4.96v-22.48c0-4.418-3.582-8-8-8H96.4    c-4.418,0-8,3.582-8,8v23.36c-4.033,1.372-7.963,3.029-11.76,4.96L60,191.741c-3.12-3.102-8.16-3.102-11.28,0L20,220.46    c-3.102,3.12-3.102,8.16,0,11.28l16.8,16.8c-1.862,3.698-3.466,7.52-4.8,11.44H8c-4.418,0-8,3.582-8,8v40.72c0,4.418,3.582,8,8,8    h24c1.3,3.972,2.877,7.849,4.72,11.6L20,345.26c-3.102,3.12-3.102,8.16,0,11.28l28.8,28.8c3.12,3.102,8.16,3.102,11.28,0    l16.56-16.56c3.798,1.929,7.728,3.587,11.76,4.96v23.36c0,4.418,3.582,8,8,8h40.72c4.418,0,8-3.582,8-8v-22.88    c4.197-1.349,8.288-3.006,12.24-4.96l16,16c3.12,3.102,8.16,3.102,11.28,0l28.8-28.8c3.102-3.12,3.102-8.16,0-11.28l-16-16    c2.048-4.022,3.786-8.194,5.2-12.48h22.48c4.418,0,8-3.582,8-8v-40.72C233.122,263.654,229.684,260.11,225.36,259.98z     M217.36,300.7h-20.48c-3.742-0.118-7.066,2.374-8,6c-1.702,6.912-4.397,13.541-8,19.68c-1.883,3.144-1.388,7.166,1.2,9.76    l14.48,14.48l-17.52,17.44l-14.64-14.64c-2.562-2.575-6.537-3.1-9.68-1.28c-6.115,3.594-12.716,6.289-19.6,8    c-3.657,0.903-6.19,4.234-6.08,8v20.96H104.4v-21.28c0.118-3.742-2.374-7.066-6-8c-6.72-1.747-13.158-4.441-19.12-8    c-3.144-1.883-7.166-1.388-9.76,1.2l-15.2,15.2l-17.44-17.28L52,335.58c2.575-2.562,3.1-6.537,1.28-9.68    c-3.54-5.915-6.233-12.297-8-18.96c-0.934-3.626-4.258-6.118-8-6H16.16v-24.96H38c3.742,0.118,7.066-2.374,8-6    c1.772-6.661,4.464-13.043,8-18.96c1.561-3.261,0.741-7.163-2-9.52l-15.12-15.36L54.4,208.7l15.2,15.2    c2.594,2.588,6.616,3.083,9.76,1.2c5.966-3.551,12.403-6.245,19.12-8c3.594-0.965,6.047-4.281,5.92-8v-21.12h24.72v20.96    c-0.11,3.766,2.423,7.097,6.08,8c6.884,1.71,13.485,4.405,19.6,8c3.143,1.82,7.118,1.295,9.68-1.28l14.64-14.72l17.52,17.44    l-14.56,14.56c-2.588,2.594-3.083,6.616-1.2,9.76c3.607,6.137,6.302,12.767,8,19.68c0.934,3.626,4.258,6.118,8,6h20.48    L217.36,300.7z" fill="#353129"/><path d="M116.8,243.981c-24.742,0-44.8,20.058-44.8,44.8s20.058,44.8,44.8,44.8c24.742,0,44.8-20.058,44.8-44.8    C161.556,264.056,141.524,244.025,116.8,243.981z M116.8,317.34v0.24c-15.906,0-28.8-12.894-28.8-28.8s12.894-28.8,28.8-28.8    c15.906,0,28.8,12.894,28.8,28.8C145.468,304.592,132.613,317.341,116.8,317.34z" fill="#353129"/><path d="M439.683,148.359c-0.025-0.127-0.052-0.253-0.083-0.378l-8.64-39.44c-0.956-4.304-5.214-7.023-9.52-6.08l-21.92,4.8    c-2.381-3.879-5.055-7.57-8-11.04L404,77.181c2.379-3.713,1.306-8.65-2.4-11.04l-34.4-22.16c-3.713-2.379-8.65-1.306-11.04,2.4    l-12.32,19.2c-4.285-1.071-8.644-1.82-13.04-2.24l-4.88-22.4c-0.99-4.306-5.284-6.994-9.589-6.003    c-0.111,0.025-0.221,0.053-0.331,0.083l-40,8.72c-4.303,0.956-7.023,5.214-6.08,9.52l5.6,22.72    c-3.663,2.203-7.165,4.662-10.48,7.36L245.28,70.7c-3.713-2.379-8.65-1.306-11.04,2.4L212,107.421    c-2.379,3.713-1.306,8.65,2.4,11.04l20,12.8c-1.006,4.051-1.728,8.168-2.16,12.32l-23.28,5.12c-4.304,0.956-7.023,5.214-6.08,9.52    l8.72,40c0.956,4.304,5.214,7.023,9.52,6.08l23.28-5.04c2.295,3.533,4.835,6.901,7.6,10.08l-12.8,20    c-2.379,3.713-1.306,8.65,2.4,11.04l34.24,22c3.713,2.379,8.65,1.306,11.04-2.4l12.64-19.76c4.126,1.073,8.323,1.848,12.56,2.32    l4.96,22.8c0.805,3.753,4.162,6.405,8,6.32h1.68l40-8.64c4.058-1.305,6.38-5.562,5.28-9.68l-4.88-22.4    c3.802-2.213,7.438-4.7,10.88-7.44l19.44,12.48c3.713,2.379,8.65,1.306,11.04-2.4l22-34.32c2.458-3.671,1.475-8.64-2.196-11.098    c-0.093-0.063-0.188-0.123-0.284-0.182l-18.96-12.16c1.135-4.36,1.937-8.799,2.4-13.28l21.92-4.8    C437.697,156.896,440.528,152.696,439.683,148.359z M402.32,148.541c-3.551,0.758-6.146,3.813-6.32,7.44    c-0.246,7.163-1.54,14.252-3.84,21.04c-1.164,3.479,0.188,7.305,3.28,9.28l17.28,11.04l-13.36,20.8l-17.44-11.2    c-3.073-1.967-7.088-1.605-9.76,0.88c-5.211,4.79-11.084,8.805-17.44,11.92c-3.313,1.612-5.097,5.278-4.32,8.88l4.48,20.48    l-24,5.28l-4.56-20.8c-0.758-3.551-3.813-6.146-7.44-6.32c-6.948-0.307-13.816-1.6-20.4-3.84c-0.826-0.272-1.691-0.407-2.56-0.4    c-2.72,0.005-5.251,1.391-6.72,3.68l-11.6,18.08l-20.8-13.36l11.2-18.4c1.967-3.073,1.605-7.088-0.88-9.76    c-4.659-5.056-8.591-10.737-11.68-16.88c-1.638-3.282-5.298-5.029-8.88-4.24l-21.28,4.64l-5.28-24l21.28-4.64    c3.579-0.766,6.181-3.863,6.32-7.52c0.506-6.946,1.987-13.787,4.4-20.32c1.123-3.456-0.224-7.234-3.28-9.2l-18.24-11.68    l13.36-20.8l17.6,11.36c3.091,2.009,7.155,1.645,9.84-0.88c5.058-4.781,10.768-8.821,16.96-12c3.217-1.655,4.923-5.263,4.16-8.8    l-4.56-20.8l24-5.28l4.48,20.48c0.805,3.753,4.162,6.405,8,6.32c7.071,0.188,14.077,1.4,20.8,3.6    c3.456,1.123,7.234-0.224,9.2-3.28l11.2-17.44l20.8,13.36l-11.12,17.28c-1.988,3.109-1.591,7.174,0.96,9.84    c4.775,5.235,8.763,11.137,11.84,17.52c1.638,3.282,5.298,5.03,8.88,4.24l20-4.32l5.28,24L402.32,148.541z" fill="#353129"/><path d="M365.2,143.741c-4.422-20.62-22.671-35.333-43.76-35.28c-24.742-0.009-44.807,20.041-44.817,44.783    s20.041,44.807,44.783,44.817c24.742,0.009,44.807-20.041,44.817-44.783C366.224,150.071,365.881,146.874,365.2,143.741z     M327.44,181.421h0.08c-15.505,3.142-30.702-6.599-34.32-22c-3.37-15.547,6.466-30.891,22-34.32c2.025-0.43,4.09-0.644,6.16-0.64    c15.906-0.023,28.819,12.852,28.842,28.758C350.222,166.813,340.733,178.57,327.44,181.421z" fill="#353129"/></g><g transform="matrix(0.13436496257781982 0 0 0.13436496257781982 93 208)" id="L1_7"><path d="M133.639,213.912c1.953,1.953,4.512,2.929,7.071,2.929s5.119-0.976,7.071-2.929c3.905-3.905,3.905-10.237,0-14.143   l-18.611-18.611l26.662-26.662c3.905-3.905,3.905-10.237,0-14.142s-10.237-3.905-14.142,0l-26.661,26.662l-23.419-23.419   l26.662-26.662c3.905-3.905,3.905-10.237,0-14.143c-3.905-3.905-10.237-3.905-14.143,0l-26.662,26.662l-53.3-53.299L76.444,24.23   l123.438,123.438c3.905,3.905,10.237,3.905,14.143,0c3.905-3.905,3.905-10.237,0-14.142L83.54,3.041   C79.644-0.854,73.33-0.865,69.421,3.017L2.953,69.035C1.067,70.909,0.004,73.455,0,76.113s1.049,5.208,2.929,7.088L133.639,213.912   z" fill="#c1ce96"/><path d="M443.617,363.118L313.019,232.52c-3.905-3.905-10.237-3.905-14.143,0c-3.905,3.905-3.905,10.237,0,14.143l123.527,123.526   l-52.101,52.101l-53.323-53.324l26.662-26.662c3.905-3.905,3.905-10.237,0-14.142s-10.237-3.905-14.142,0l-26.661,26.662   l-23.419-23.419l26.662-26.662c3.905-3.905,3.905-10.237,0-14.143s-10.237-3.905-14.143,0l-26.662,26.662l-18.499-18.499   c-3.905-3.904-10.237-3.904-14.143,0c-3.905,3.905-3.905,10.237,0,14.143l130.598,130.598c1.953,1.953,4.512,2.929,7.071,2.929   s5.119-0.976,7.071-2.929l66.243-66.243C447.521,373.355,447.521,367.023,443.617,363.118z" fill="#c1ce96"/><path d="M63.324,61.988c-3.778,3.777-5.858,8.8-5.858,14.143c0,5.342,2.081,10.365,5.858,14.142   c3.777,3.778,8.8,5.858,14.142,5.858s10.365-2.081,14.143-5.858c7.797-7.798,7.797-20.486,0-28.284   c-3.778-3.777-8.8-5.857-14.143-5.857S67.101,58.21,63.324,61.988z" fill="#c1ce96"/><path d="M384.445,383.109c3.777-3.778,5.858-8.8,5.858-14.142c0-5.342-2.081-10.365-5.858-14.143   c-3.778-3.777-8.8-5.857-14.143-5.857c-5.342,0-10.364,2.08-14.142,5.857c-3.778,3.778-5.858,8.8-5.858,14.143   c0,5.342,2.08,10.364,5.857,14.142c3.778,3.778,8.8,5.858,14.142,5.858C375.645,388.967,380.667,386.887,384.445,383.109z" fill="#c1ce96"/><path d="M402.429,114.827c0.002-0.002,0.003-0.003,0.005-0.005s0.003-0.003,0.005-0.005l28.645-28.645   c19.495-19.495,19.495-51.216,0-70.711c-9.432-9.431-21.988-14.625-35.355-14.625c-13.368,0-25.924,5.194-35.356,14.626   l-28.64,28.64c-0.003,0.003-0.007,0.006-0.01,0.009s-0.006,0.007-0.009,0.01l-35.342,35.342c-0.001,0.001-0.003,0.002-0.004,0.004   s-0.002,0.003-0.004,0.004L67.16,308.674c-0.019,0.019-0.034,0.042-0.053,0.061c-0.306,0.312-0.59,0.643-0.853,0.991   c-0.057,0.075-0.108,0.153-0.163,0.23c-0.229,0.323-0.441,0.657-0.631,1.004c-0.021,0.039-0.05,0.073-0.071,0.112l-37.247,70.484   c-0.019,0.035-0.038,0.07-0.056,0.106L1.996,431.036c-2.05,3.879-1.332,8.641,1.77,11.744c1.923,1.922,4.482,2.929,7.074,2.929   c1.591,0,3.194-0.379,4.669-1.159l49.379-26.094c0.032-0.016,0.063-0.033,0.095-0.05l70.489-37.25   c0.019-0.01,0.036-0.024,0.055-0.034c0.384-0.207,0.753-0.441,1.107-0.695c0.062-0.045,0.124-0.089,0.185-0.135   c0.347-0.262,0.677-0.545,0.989-0.851c0.02-0.02,0.044-0.035,0.064-0.055L402.429,114.827z M62.137,397.288l-12.88-12.88   l21.055-39.842l4.323,19.719c0.011,0.051,0.032,0.098,0.044,0.149c0.087,0.372,0.196,0.738,0.326,1.1   c0.025,0.069,0.046,0.138,0.072,0.206c0.154,0.401,0.334,0.793,0.542,1.176c0.032,0.059,0.069,0.114,0.102,0.172   c0.178,0.313,0.376,0.617,0.591,0.913c0.062,0.085,0.122,0.17,0.186,0.253c0.257,0.332,0.53,0.656,0.834,0.961   c0.305,0.305,0.629,0.578,0.962,0.835c0.082,0.063,0.166,0.123,0.25,0.184c0.298,0.216,0.604,0.415,0.919,0.595   c0.056,0.032,0.109,0.067,0.166,0.098c0.384,0.209,0.778,0.389,1.18,0.544c0.066,0.025,0.133,0.046,0.199,0.07   c0.364,0.131,0.734,0.241,1.109,0.329c0.049,0.012,0.095,0.032,0.145,0.043l19.718,4.322L62.137,397.288z M104.399,356.288   l36.76-36.761c3.905-3.905,3.905-10.237,0-14.142s-10.237-3.905-14.142,0l-36.76,36.76l-5.086-23.198l218.268-218.267   l14.142,14.142L151.135,281.267c-3.905,3.905-3.905,10.237,0,14.143c1.953,1.953,4.512,2.929,7.071,2.929   c2.559,0,5.119-0.977,7.071-2.929l166.445-166.445l14.142,14.142L127.597,361.374L104.399,356.288z M338.794,65.326l42.426,42.426   l-21.213,21.213l-42.426-42.426L338.794,65.326z M374.515,29.605c5.654-5.655,13.188-8.769,21.213-8.769   c8.025,0,15.559,3.114,21.212,8.768c11.697,11.697,11.697,30.729,0,42.426l-21.578,21.578l-42.426-42.426L374.515,29.605z    M39.478,402.914l4.154,4.154l-8.809,4.655L39.478,402.914z" fill="#c1ce96"/></g><path d="M454.69,161.886l-86.972-86.98c-6.272-6.281-16.264-6.63-22.946-1.084l-17.604,8.806l-6.912-6.912l9.37-18.705    c5.751-11.81,0.811-19.379-2.654-22.852L297.805,5.001C294.588,1.775,290.304,0,285.739,0h-0.017    c-4.557,0-8.841,1.775-12.049,5.001l-72.405,72.405c-3.226,3.217-5.001,7.509-5.001,12.066c0,4.557,1.775,8.841,5.001,12.066    l29.286,29.286c3.413,3.422,10.914,8.294,22.801,2.492l18.628-9.327l6.912,6.912l-8.806,17.604    c-2.534,3.046-3.917,6.861-3.917,10.88c0,4.557,1.775,8.841,5.001,12.066l34.697,34.688c3.328,3.328,8.73,3.328,12.066,0    c3.328-3.337,3.328-8.738,0-12.066l-34.697-34.688c0.657-0.649,1.195-1.399,1.604-2.219l12.066-24.141    c1.638-3.285,0.998-7.253-1.604-9.847l-15.607-15.607c-2.594-2.594-6.579-3.217-9.847-1.596l-24.064,12.041    c-2.133,1.05-2.987,0.939-3.166,0.742l-29.286-29.286l72.405-72.405l29.431,29.474c0,0.008,0.145,0.862-0.853,2.91l-12.075,24.141    c-1.638,3.277-0.998,7.253,1.596,9.847l15.607,15.599c2.611,2.603,6.579,3.234,9.856,1.604l24.132-12.066    c0.819-0.418,1.57-0.947,2.219-1.604l87.552,87.509c0.521,0.435,51.729,43.537,51.729,90.052c0,18.671,0,31.889-6.46,50.475    c-21.786-71.108-63.744-99.029-65.698-100.301c-2.398-1.562-5.427-1.809-8.047-0.666l-50.441,22.007    c-2.628,1.152-4.113,1.109-4.241,1.135l-21.197-21.333c-1.596-1.621-3.678-2.901-6.05-2.517c-2.27,0-4.437,0.896-6.033,2.5    L53.35,489.267c-1.417,1.579-6.101,5.666-10.684,5.666c-4.71,0-9.242-4.011-11.034-6.033l-8.9-8.883    c-1.579-1.417-5.666-6.101-5.666-10.684c0-4.489,4.233-9.378,6.033-11.034l251.665-251.665c3.337-3.337,3.337-8.738,0-12.066    c-3.328-3.337-8.73-3.337-12.066,0L11.392,445.892C10.223,446.933,0,456.414,0,469.333c0,13.099,10.274,22.46,11.034,23.1    l8.047,8.004C20.07,501.623,29.227,512,42.667,512c13.099,0,22.46-10.274,23.1-11.034L332.783,233.95l15.181,15.283    c5.572,5.572,14.012,6.477,23.159,2.449l45.858-20.011c11.307,9.165,46.797,42.615,61.056,111.394    c0.742,3.558,3.652,6.255,7.262,6.733c3.55,0.427,7.108-1.399,8.73-4.651C512,309.214,512,290.475,512,264.533    C512,209.946,456.465,163.302,454.69,161.886z" transform="matrix(0.1171875 0 0 0.1171875 123 327)" id="L1_8" fill="#484a47"/><path d="M506.944,81.321c-7.549-7.549-28.501-28.501-36.284-36.284c-2.929-2.929-7.677-2.93-10.608,0    c-2.929,2.929-2.929,7.679,0,10.607l16.106,16.106L303.427,244.481l-57.704-57.704l21.821-21.82l15.215,15.215    c2.93,2.929,7.679,2.929,10.608,0c2.929-2.929,2.929-7.678,0-10.607l-15.216-15.216l27.12-27.12l15.215,15.215    c2.929,2.929,7.679,2.929,10.607,0c2.93-2.929,2.93-7.678,0.001-10.607l-15.215-15.216l27.12-27.12l15.215,15.215    c2.93,2.929,7.679,2.929,10.608,0s2.929-7.679,0-10.607l-15.216-15.216l27.12-27.12l15.215,15.215    c2.929,2.929,7.679,2.929,10.608,0c2.929-2.929,2.929-7.679,0-10.607l-15.216-15.215l25.505-25.505    c0.553-0.553,1.184-0.669,1.615-0.669s1.063,0.116,1.615,0.669l15.233,15.232c2.927,2.929,7.677,2.93,10.607,0    c2.929-2.929,2.929-7.679-0.001-10.607L430.674,5.055c-6.74-6.739-17.706-6.739-24.447,0L235.117,176.169l-93.29-93.29    c-0.644-0.644-1.574-1.28-2.492-1.651c-2.07-0.887-79.829-34.217-82.333-35.29c-9.183-3.938-18.359,5.388-14.471,14.469    c0.001,0,0.001,0.001,0.001,0.001c2.612,6.095,18.925,44.153,21.254,49.585l14.036,32.745c0.372,0.921,1.011,1.852,1.651,2.492    l93.291,93.291L5.068,406.219c-6.757,6.757-6.756,17.69-0.001,24.446l76.267,76.266c6.754,6.756,17.69,6.758,24.447,0    l167.698-167.696c4.938,4.938,140.653,140.653,145.603,145.603c4.265,4.264,9.951,6.612,16.01,6.612    c6.059,0,11.745-2.348,16.01-6.612l30.333-30.333c8.827-8.828,8.827-23.191,0-32.019    c-29.388-29.387-116.821-116.821-145.604-145.604l171.114-171.114C513.685,99.027,513.685,88.06,506.944,81.321z M73.208,93.9    L60.242,63.646l30.254,12.968L73.208,93.9z M79.574,108.75l25.771-25.771l18.039,7.733c-30.896,30.896,0.666-0.667-36.078,36.076    L79.574,108.75z M71.758,476.145l-56.084-56.087c-0.554-0.554-0.67-1.185-0.67-1.616c0-0.432,0.116-1.062,0.67-1.615    l25.504-25.505l15.215,15.215c2.929,2.929,7.679,2.929,10.607,0c2.93-2.929,2.93-7.678,0.001-10.607l-15.215-15.216l27.12-27.12    l15.215,15.215c2.93,2.929,7.679,2.929,10.608,0s2.929-7.679,0-10.607l-15.216-15.216l27.12-27.12l15.215,15.215    c2.929,2.929,7.679,2.929,10.608,0s2.929-7.679,0-10.607l-15.216-15.215l27.12-27.121l15.215,15.215    c2.93,2.929,7.679,2.929,10.608,0s2.929-7.679,0-10.607l-15.216-15.216l18.402-18.402l57.704,57.704L71.758,476.145z     M95.172,496.325c-0.553,0.553-1.184,0.669-1.615,0.669c-0.108,0-0.228-0.007-0.357-0.027c-0.385-0.059-0.844-0.228-1.259-0.643    l-9.573-9.573L251.682,317.44l11.188,11.188L95.172,496.325z M470.826,433.093c2.978,2.979,2.978,7.826-0.001,10.805    l-30.333,30.333c-1.431,1.431-3.349,2.219-5.401,2.219c-2.052,0-3.971-0.788-5.401-2.219l-27.11-27.111    c5.011-5.011,36.125-36.125,41.137-41.137L470.826,433.093z M414.869,377.137l18.238,18.239    c-5.012,5.012-36.125,36.125-41.138,41.137l-18.238-18.238C378.405,413.6,410.186,381.82,414.869,377.137z M404.261,366.528    c-10.069,10.07-8.81,8.811-15.265,15.266l-96.541-96.542c-2.93-2.929-7.679-2.929-10.608,0c-2.929,2.929-2.929,7.679,0,10.607    l96.542,96.542c-3.029,3.03-12.082,12.082-15.265,15.265c-7.985-7.984-255.418-255.417-267.74-267.739l15.265-15.265    l146.447,146.447c2.929,2.928,7.678,2.93,10.608,0c2.929-2.929,2.929-7.679,0-10.607L121.257,114.054    c11.111-11.111,8.025-8.025,15.265-15.265C148.607,110.874,383.672,345.939,404.261,366.528z M496.336,95.16L325.222,266.274    l-11.187-11.187l172.731-172.73l9.571,9.571C497.229,92.819,497.229,94.268,496.336,95.16z" transform="matrix(0.1171875 0 0 0.1171875 185 83)" id="L1_9" fill="#9bbfab"/><g transform="matrix(0.12295181304216385 0 0 0.12295181304216385 300 307)" id="L1_12"><path d="m423.996094 344.476562h-48c-2.808594 0-5.410156 1.472657-6.855469 3.878907l-24 40c-1.523437 2.535156-1.523437 5.703125 0 8.242187l24 40c1.445313 2.40625 4.046875 3.878906 6.855469 3.878906h48c2.808594 0 5.410156-1.472656 6.855468-3.878906l24-40c1.523438-2.539062 1.523438-5.707031 0-8.242187l-24-40c-1.445312-2.40625-4.046874-3.878907-6.855468-3.878907zm-4.527344 80h-38.945312l-19.199219-32 19.199219-32h38.945312l19.199219 32zm0 0" fill="#e8d9ac"/><path d="m189.210938 364.277344-20 32c-1.621094 2.59375-1.621094 5.882812 0 8.480468l20 32c1.464843 2.335938 4.027343 3.757813 6.785156 3.757813h40c2.757812 0 5.320312-1.421875 6.785156-3.757813l20-32c1.621094-2.597656 1.621094-5.886718 0-8.480468l-20-32c-1.464844-2.339844-4.027344-3.761719-6.785156-3.761719h-40c-2.757813 0-5.320313 1.421875-6.785156 3.761719zm11.199218 12.238281h31.136719l15 24-15 24h-31.117187l-15-24zm0 0" fill="#e8d9ac"/><path d="m41.386719 444.597656c1.449219 2.40625 4.050781 3.878906 6.855469 3.878906h24c2.8125 0 5.417968-1.472656 6.867187-3.878906l12-20c1.523437-2.539062 1.523437-5.707031 0-8.242187l-12-20c-1.449219-2.410157-4.054687-3.882813-6.867187-3.878907h-24c-2.804688 0-5.40625 1.472657-6.855469 3.878907l-12 20c-1.523438 2.535156-1.523438 5.703125 0 8.242187zm11.410156-36.121094h14.933594l7.203125 12-7.203125 12h-14.933594l-7.199219-12zm0 0" fill="#e8d9ac"/><path d="m447.996094 318.804688v-135.878907c0-17.195312 9.457031-32.992187 18.601562-48.273437l.613282-1.03125c10.503906-17.277344 14.710937-37.65625 11.90625-57.679688-5.234376-34.847656-30.597657-63.289062-64.617188-72.464844-17.285156-4.65625-35.59375-3.835937-52.390625 2.351563-2.554687.941406-4.453125 3.117187-5.042969 5.773437-.585937 2.65625.214844 5.429688 2.128906 7.363282l47.855469 47.855468c3.125 3.125 3.125 8.1875 0 11.3125l-25.398437 25.34375c-3.125 3.121094-8.1875 3.121094-11.3125 0l-47.855469-47.824218c-1.933594-1.933594-4.722656-2.742188-7.394531-2.148438-2.667969.59375-4.851563 2.511719-5.78125 5.085938-12.734375 34.871094-2.09375 73.980468 26.550781 97.597656 10.292969 10.035156 16.109375 23.792969 16.136719 38.167969v124.449219c-32.652344 21.25-47.445313 61.441406-36.363282 98.789062 11.082032 37.351562 45.40625 62.964844 84.363282 62.964844 38.957031 0 73.28125-25.613282 84.363281-62.964844 11.082031-37.347656-3.710937-77.539062-36.363281-98.789062zm-48 145.671874c-32.585938.027344-61.125-21.847656-69.5625-53.320312-8.4375-31.476562 5.332031-64.695312 33.5625-80.96875 2.472656-1.425781 3.996094-4.0625 4-6.917969v-128.914062c-.089844-18.917969-7.847656-36.988281-21.503906-50.078125-16.796876-13.652344-26.53125-34.15625-26.496094-55.800782.003906-3.921874.335937-7.832031.992187-11.695312l38.039063 38.039062c9.496094 9.0625 24.441406 9.0625 33.9375 0l25.375-25.375c9.371094-9.375 9.371094-24.566406 0-33.9375l-38.046875-38.046874c10.023437-1.699219 20.296875-1.207032 30.109375 1.445312 21.925781 5.679688 39.863281 21.410156 48.355468 42.402344 8.492188 20.996094 6.535157 44.773437-5.273437 64.09375l-.625 1.035156c-9.773437 16.34375-20.863281 34.871094-20.863281 56.488281v140.34375c.003906 2.855469 1.527344 5.492188 4 6.917969 28.230468 16.273438 42 49.492188 33.5625 80.96875-8.4375 31.472656-36.976563 53.347656-69.5625 53.320312zm0 0" fill="#e8d9ac"/><path d="m391.996094 160.476562h16v152h-16zm0 0" fill="#e8d9ac"/><path d="m135.996094 400.1875c.113281 43.226562 34.339844 78.652344 77.535156 80.25.800781 0 1.664062.039062 2.496094.039062 36.203125.023438 67.902344-24.28125 77.277344-59.25s-5.917969-71.871093-37.277344-89.957031v-89.121093c-.007813-10.238282 2.265625-20.351563 6.65625-29.601563 2.265625-4.703125 4.671875-9.292969 7.066406-13.847656 11.199219-21.277344 22.710938-43.277344 16.359375-71.792969-4.882813-21.699219-18.578125-40.386719-37.800781-51.574219-19.21875-11.191406-42.230469-13.875-63.511719-7.40625-2.691406.8125-4.757813 2.980469-5.4375 5.710938-.683594 2.726562.113281 5.609375 2.101563 7.597656l33.597656 33.601563c3.125 3.125 3.125 8.1875 0 11.3125l-17.40625 17.328124c-3.125 3.121094-8.1875 3.121094-11.3125 0l-36.976563-36.976562c-1.8125-1.816406-4.390625-2.648438-6.925781-2.242188-2.53125.40625-4.71875 2.007813-5.875 4.296876-15.125 29.917968-9.898438 66.105468 13.074219 90.519531 16.269531 16.953125 26.398437 31.769531 26.398437 53.226562v78.933594c-24.738281 14.148437-40.011718 40.457031-40.039062 68.953125zm25.183594-212.160156c-15.433594-16.5-20.972657-39.9375-14.558594-61.597656l28.40625 28.40625c9.371094 9.371093 24.566406 9.371093 33.9375 0l17.375-17.375c9.371094-9.371094 9.371094-24.566407 0-33.9375l-22.871094-22.871094c31.5625-2.285156 60.046875 18.863281 66.992188 49.734375 5.070312 22.785156-4.183594 40.441406-14.914063 60.882812-2.480469 4.71875-4.976563 9.476563-7.320313 14.359375-5.425781 11.40625-8.238281 23.882813-8.230468 36.519532v93.902343c0 3.035157 1.714844 5.808594 4.433594 7.160157 26.859374 13.414062 40.785156 43.699218 33.484374 72.824218-7.304687 29.125-33.871093 49.257813-63.886718 48.410156-34.546875-1.273437-61.929688-29.597656-62.03125-64.167968.039062-24.230469 13.824218-46.335938 35.558594-57.035156 2.730468-1.355469 4.453124-4.144532 4.441406-7.191407v-83.71875c0-28.296875-14.816406-47.632812-30.816406-64.304687zm0 0" fill="#e8d9ac"/><path d="m207.996094 216.476562h16v120h-16zm0 0" fill="#e8d9ac"/><path d="m47.996094 479.308594c3.910156.765625 7.886718 1.152344 11.871094 1.152344 25.84375.070312 48.820312-16.425782 57.023437-40.929688s-.21875-51.507812-20.894531-67.007812v-105.191407c-.085938-9.25 2.113281-18.378906 6.398437-26.574219 1.738281-3.203124 3.554688-6.203124 5.3125-9.097656 7.5-10.246094 11.777344-22.496094 12.289063-35.183594 0-16.0625-6.4375-31.453124-17.871094-42.730468-11.4375-11.277344-26.917969-17.496094-42.976562-17.269532-7.308594.125-14.523438 1.628907-21.273438 4.429688-2.472656 1.019531-4.277344 3.207031-4.800781 5.828125-.527344 2.625.292969 5.335937 2.1875 7.230469l25.421875 25.421875-16.976563 16.96875-25.710937-25.679688c-1.871094-1.871093-4.546875-2.699219-7.144532-2.207031-2.601562.492188-4.789062 2.238281-5.847656 4.664062-3.691406 8.328126-5.378906 17.410157-4.9296872 26.511719 1.4843752 12.058594 5.9804692 23.550781 13.0742192 33.414063l1.015624 1.671875c6.203126 9.460937 9.613282 20.480469 9.832032 31.792969v106c-18.894532 14.171874-27.714844 38.109374-22.535156 61.15625 5.179687 23.042968 23.394531 40.902343 46.535156 45.628906zm-11.679688-95.832032c2.304688-1.480468 3.695313-4.035156 3.679688-6.777343v-110.175781c-.171875-14.242188-4.378906-28.148438-12.136719-40.09375l-1.03125-1.699219c-5.640625-7.648438-9.339844-16.554688-10.777344-25.949219-.121093-2.40625-.03125-4.8125.265625-7.203125l16.078125 16.082031c6.332031 6.046875 16.296875 6.046875 22.625 0l16.976563-16.984375c6.246094-6.246093 6.246094-16.375 0-22.625l-15.457032-15.429687c.945313-.082032 1.890626-.128906 2.824219-.144532 11.804688-.289062 23.207031 4.289063 31.527344 12.664063 8.414063 8.25 13.140625 19.550781 13.105469 31.335937-.566406 9.746094-4.03125 19.097657-9.945313 26.863282-1.894531 3.128906-3.863281 6.359375-5.734375 9.839844-5.539062 10.527343-8.398437 22.257812-8.320312 34.152343v109.367188c0 2.726562 1.386718 5.265625 3.679687 6.738281 11.859375 7.574219 19.378907 20.363281 20.234375 34.40625.851563 14.046875-5.0625 27.652344-15.914062 36.609375-10.308594 8.417969-23.839844 11.777344-36.886719 9.160156-17.609375-3.519531-31.265625-17.472656-34.402344-35.152343-3.136719-17.578126 4.597657-35.320313 19.609375-44.984376zm0 0" fill="#e8d9ac"/><path d="m51.5 256.476562h16v120h-16zm0 0" fill="#e8d9ac"/></g></defs><g fi:class="KUsePattern"><pattern id="pattern_L1_4" width="350" height="350" patternUnits="userSpaceOnUse"><use xlink:href="#L1_4" x="-350" y="-350"/><use xlink:href="#L1_4" x="0" y="-350"/><use xlink:href="#L1_4" x="350" y="-350"/><use xlink:href="#L1_4" x="-350" y="0"/><use xlink:href="#L1_4" x="0" y="0"/><use xlink:href="#L1_4" x="350" y="0"/><use xlink:href="#L1_4" x="-350" y="350"/><use xlink:href="#L1_4" x="0" y="350"/><use xlink:href="#L1_4" x="350" y="350"/></pattern><rect x="0" y="0" width="100%" height="100%" fill="url(#pattern_L1_4)"/></g><g fi:class="KUsePattern"><pattern id="pattern_L1_6" width="350" height="350" patternUnits="userSpaceOnUse"><use xlink:href="#L1_6" x="-350" y="-350"/><use xlink:href="#L1_6" x="0" y="-350"/><use xlink:href="#L1_6" x="350" y="-350"/><use xlink:href="#L1_6" x="-350" y="0"/><use xlink:href="#L1_6" x="0" y="0"/><use xlink:href="#L1_6" x="350" y="0"/><use xlink:href="#L1_6" x="-350" y="350"/><use xlink:href="#L1_6" x="0" y="350"/><use xlink:href="#L1_6" x="350" y="350"/></pattern><rect x="0" y="0" width="100%" height="100%" fill="url(#pattern_L1_6)"/></g><g fi:class="KUsePattern"><pattern id="pattern_L1_7" width="350" height="350" patternUnits="userSpaceOnUse"><use xlink:href="#L1_7" x="-350" y="-350"/><use xlink:href="#L1_7" x="0" y="-350"/><use xlink:href="#L1_7" x="350" y="-350"/><use xlink:href="#L1_7" x="-350" y="0"/><use xlink:href="#L1_7" x="0" y="0"/><use xlink:href="#L1_7" x="350" y="0"/><use xlink:href="#L1_7" x="-350" y="350"/><use xlink:href="#L1_7" x="0" y="350"/><use xlink:href="#L1_7" x="350" y="350"/></pattern><rect x="0" y="0" width="100%" height="100%" fill="url(#pattern_L1_7)"/></g><g fi:class="KUsePattern"><pattern id="pattern_L1_8" width="350" height="350" patternUnits="userSpaceOnUse"><use xlink:href="#L1_8" x="-350" y="-350"/><use xlink:href="#L1_8" x="0" y="-350"/><use xlink:href="#L1_8" x="350" y="-350"/><use xlink:href="#L1_8" x="-350" y="0"/><use xlink:href="#L1_8" x="0" y="0"/><use xlink:href="#L1_8" x="350" y="0"/><use xlink:href="#L1_8" x="-350" y="350"/><use xlink:href="#L1_8" x="0" y="350"/><use xlink:href="#L1_8" x="350" y="350"/></pattern><rect x="0" y="0" width="100%" height="100%" fill="url(#pattern_L1_8)"/></g><g fi:class="KUsePattern"><pattern id="pattern_L1_9" width="350" height="350" patternUnits="userSpaceOnUse"><use xlink:href="#L1_9" x="-350" y="-350"/><use xlink:href="#L1_9" x="0" y="-350"/><use xlink:href="#L1_9" x="350" y="-350"/><use xlink:href="#L1_9" x="-350" y="0"/><use xlink:href="#L1_9" x="0" y="0"/><use xlink:href="#L1_9" x="350" y="0"/><use xlink:href="#L1_9" x="-350" y="350"/><use xlink:href="#L1_9" x="0" y="350"/><use xlink:href="#L1_9" x="350" y="350"/></pattern><rect x="0" y="0" width="100%" height="100%" fill="url(#pattern_L1_9)"/></g><g fi:class="KUsePattern"><pattern id="pattern_L1_12" width="350" height="350" patternUnits="userSpaceOnUse"><use xlink:href="#L1_12" x="-350" y="-350"/><use xlink:href="#L1_12" x="0" y="-350"/><use xlink:href="#L1_12" x="350" y="-350"/><use xlink:href="#L1_12" x="-350" y="0"/><use xlink:href="#L1_12" x="0" y="0"/><use xlink:href="#L1_12" x="350" y="0"/><use xlink:href="#L1_12" x="-350" y="350"/><use xlink:href="#L1_12" x="0" y="350"/><use xlink:href="#L1_12" x="350" y="350"/></pattern><rect x="0" y="0" width="100%" height="100%" fill="url(#pattern_L1_12)"/></g></svg>